<?xml version="1.0" standalone="no"?>
<!DOCTYPE svg PUBLIC "-//W3C//DTD SVG 20010904//EN"
 "http://www.w3.org/TR/2001/REC-SVG-20010904/DTD/svg10.dtd">
<svg version="1.0" xmlns="http://www.w3.org/2000/svg"
 width="2000.000000pt" height="2000.000000pt" viewBox="0 0 2000.000000 2000.000000"
 preserveAspectRatio="xMidYMid meet">
<metadata>
Created by potrace 1.11, written by Peter Selinger 2001-2013
</metadata>
<g transform="translate(0.000000,2000.000000) scale(0.100000,-0.100000)"
fill="#000000" stroke="none">
<path d="M1960 19990 c-136 -19 -159 -23 -225 -36 -311 -64 -645 -221 -899
-422 -39 -31 -123 -107 -187 -170 -355 -349 -578 -804 -636 -1302 -10 -81 -11
-16009 -1 -16105 56 -571 358 -1117 820 -1482 318 -252 712 -416 1104 -460 87
-10 16024 -11 16120 -1 39 4 77 10 85 12 8 3 32 7 54 10 32 4 126 25 225 50
25 7 182 62 240 86 81 32 253 124 350 187 433 282 763 730 903 1225 44 154 53
196 75 368 10 76 9 16040 -1 16119 -79 636 -435 1214 -967 1566 -243 161 -562
291 -805 328 -55 9 -100 17 -130 24 -40 10 -16054 13 -16125 3z"/>
</g>
</svg>
